<svg xmlns="http://www.w3.org/2000/svg" viewBox="0 0 900 1600" preserveAspectRatio="xMidYMid slice" role="img" aria-label="CallCoach placeholder">
  <defs>
    <linearGradient id="cc-bg" x1="0" y1="0" x2="0" y2="1">
      <stop offset="0" stop-color="#0b0d10"/>
      <stop offset="1" stop-color="#181b20"/>
    </linearGradient>
    <linearGradient id="cc-accent" x1="0" y1="0" x2="1" y2="0">
      <stop offset="0" stop-color="#ff5b2e"/>
      <stop offset="1" stop-color="#ff8a3d"/>
    </linearGradient>
  </defs>
  <rect width="900" height="1600" fill="url(#cc-bg)"/>
  <g transform="translate(450 800)">
    <circle r="360" fill="none" stroke="#ffffff" stroke-opacity="0.04" stroke-width="1"/>
    <circle r="260" fill="none" stroke="#ffffff" stroke-opacity="0.06" stroke-width="1"/>
    <circle r="160" fill="none" stroke="#ffffff" stroke-opacity="0.08" stroke-width="1"/>
  </g>
  <g transform="translate(120 720)" font-family="'Geist Mono', ui-monospace, monospace" fill="#e8e4da">
    <text x="0" y="0" font-size="22" opacity="0.45">● LIVE</text>
    <text x="0" y="70" font-size="42" font-weight="700" letter-spacing="-0.5">Hi, how can I</text>
    <text x="0" y="120" font-size="42" font-weight="700" letter-spacing="-0.5">help you today?</text>
    <text x="0" y="200" font-size="22" opacity="0.45">— SUGGESTED REPLY</text>
    <rect x="-6" y="226" width="670" height="60" rx="8" fill="url(#cc-accent)" opacity="0.18"/>
    <text x="14" y="266" font-size="22" fill="#ff8a3d">Thanks — I'm following up on the Marina listing.</text>
  </g>
  <g transform="translate(120 1280)">
    <g fill="url(#cc-accent)">
      <rect x="0"   y="0"  width="6" height="40" rx="3"/>
      <rect x="16"  y="-16" width="6" height="72" rx="3"/>
      <rect x="32"  y="-8"  width="6" height="56" rx="3"/>
      <rect x="48"  y="-28" width="6" height="96" rx="3"/>
      <rect x="64"  y="-12" width="6" height="64" rx="3"/>
      <rect x="80"  y="-32" width="6" height="104" rx="3"/>
      <rect x="96"  y="-10" width="6" height="60" rx="3"/>
      <rect x="112" y="-24" width="6" height="88" rx="3"/>
      <rect x="128" y="-6"  width="6" height="52" rx="3"/>
      <rect x="144" y="-18" width="6" height="76" rx="3"/>
      <rect x="160" y="0"   width="6" height="40" rx="3"/>
      <rect x="176" y="-14" width="6" height="68" rx="3"/>
      <rect x="192" y="-6"  width="6" height="52" rx="3"/>
      <rect x="208" y="-22" width="6" height="84" rx="3"/>
    </g>
  </g>
  <text x="120" y="1500" font-family="'Geist Mono', ui-monospace, monospace" font-size="18" fill="#e8e4da" opacity="0.45">CALLCOACH · iOS · APPLE INTELLIGENCE</text>
</svg>
